<svg width="1114" height="309" viewBox="0 0 1114 309" fill="none" xmlns="http://www.w3.org/2000/svg">
<path d="M345.853 169V116.488L344.893 106.888L345.853 101.032H366.973V127.048H387.037V101.032H408.157V137.128L409.117 143.752V169H387.037V144.616H366.973V151.336L367.933 169H345.853ZM415.843 169L420.451 152.776V140.584L427.555 137.704L440.995 101.128H469.891L486.307 144.136L493.699 157.768V169H472.867L468.067 154.696H442.051L437.923 169H415.843ZM448.387 137.896H462.787L456.451 118.792H454.435L448.387 137.896ZM510.066 169V119.368L490.866 120.328V101.032H550.866V120.328L531.186 119.368V153.64L532.242 163.24L531.186 169H510.066Z" fill="#019934"/>
<path d="M583.532 169V116.392L581.612 106.792L583.532 101.032H620.012C627.244 101.032 633.036 102.44 637.388 105.256C641.74 108.072 643.916 112.36 643.916 118.12C643.916 121.256 643.34 123.848 642.188 125.896C641.1 127.88 639.692 129.576 637.964 130.984C640.14 131.496 642.188 132.456 644.108 133.864C646.028 135.208 647.596 137.032 648.812 139.336C650.028 141.576 650.636 144.36 650.636 147.688C650.636 154.408 648.652 159.656 644.684 163.432C640.78 167.144 634.476 169 625.772 169H583.532ZM604.652 127.432H615.98C618.156 127.432 619.724 127.112 620.684 126.472C621.644 125.768 622.124 124.712 622.124 123.304C622.124 121.832 621.42 120.808 620.012 120.232C618.604 119.592 616.94 119.272 615.02 119.272H604.652V127.432ZM604.652 150.76H620.972C623.532 150.76 625.324 150.376 626.348 149.608C627.372 148.776 627.884 147.688 627.884 146.344C627.884 143.272 625.9 141.736 621.932 141.736H604.652V150.76ZM655.468 169L660.076 152.776V140.584L667.18 137.704L680.62 101.128H709.516L725.932 144.136L733.324 157.768V169H712.492L707.692 154.696H681.676L677.548 169H655.468ZM688.012 137.896H702.412L696.076 118.792H694.06L688.012 137.896ZM739.185 169L736.209 163.24L766.161 119.176H739.185V101.032H794.385V112.36L769.329 150.856H772.305L794.577 148.936V169H739.185ZM798.437 169L803.045 152.776V140.584L810.149 137.704L823.589 101.128H852.485L868.901 144.136L876.293 157.768V169H855.461L850.661 154.696H824.645L820.517 169H798.437ZM830.981 137.896H845.381L839.045 118.792H837.029L830.981 137.896ZM884.938 169V116.488L883.018 106.792L884.938 101.032H919.498C924.682 101.032 929.13 101.864 932.842 103.528C936.554 105.192 939.402 107.88 941.386 111.592C943.37 115.24 944.362 120.072 944.362 126.088C944.362 131.656 943.434 136.232 941.578 139.816C939.722 143.4 937.002 146.12 933.418 147.976L935.05 149.32L941.674 158.344L947.146 163.24V169H921.706L911.146 151.432H906.058V153.544L907.018 163.144L906.058 169H884.938ZM906.058 133.48H911.626C913.866 133.48 915.786 133.384 917.386 133.192C919.05 133 920.33 132.424 921.226 131.464C922.122 130.44 922.57 128.808 922.57 126.568C922.57 124.2 922.09 122.504 921.13 121.48C920.17 120.456 918.826 119.848 917.098 119.656C915.434 119.4 913.482 119.272 911.242 119.272H905.098L906.058 133.48Z" fill="#F6921E"/>
<path d="M50.817 215.984C102.872 265.066 179.464 282.26 199.082 285.349C185.634 194.224 96.1769 130.07 1.01464 149.181C-11.7713 257.743 98.6183 338.866 200.473 298.431C200.47 298.353 200.462 298.278 200.457 298.201C92.3918 285.264 50.817 215.984 50.817 215.984Z" fill="#019934"/>
<path d="M290.646 149.181C279.817 147.006 268.604 145.863 257.12 145.863C218.48 145.863 182.946 158.83 154.715 180.524C168.998 193.401 181.12 208.564 190.521 225.415C212.74 213.058 247.192 192.205 259.321 175.194C244.131 202.336 226.126 214.771 195.662 235.406C204.171 253.298 209.717 272.835 211.582 293.459C259.072 269.873 291.656 221.581 291.656 165.781C291.655 160.161 291.288 154.63 290.646 149.181Z" fill="#019934"/>
<path d="M106.188 92.2866L116.749 152.969C124.427 156.328 131.792 160.282 138.791 164.767L119.239 89.5652C133.956 82.8786 142.967 61.3433 138.052 38.6586C132.605 13.5133 112.115 -3.51689 92.2831 0.61883C72.4518 4.75455 60.7938 28.4898 66.2398 53.6352C71.1543 76.3205 88.3155 92.3953 106.188 92.2866Z" fill="#F6921E"/>
<path d="M174.737 93.5325L156.533 163.554C163.439 159.254 170.612 155.507 178.025 152.348L187.786 96.2561C204.001 96.0181 216.192 78.9055 221.108 56.2195C222.716 48.7948 226.44 28.7299 223.755 16.148C223.544 15.1486 222.648 14.4318 221.605 14.4318C220.565 14.4304 219.669 15.1429 219.449 16.1409L209.408 62.5047C209.191 63.5127 208.571 64.3957 207.69 64.9533C206.81 65.5166 205.737 65.7113 204.709 65.4982L204.481 65.4499C202.342 65.0038 200.976 62.9395 201.428 60.8403L211.425 14.7046C211.921 12.4222 210.437 10.181 208.111 9.69582L208.032 9.68019C206.915 9.4472 205.75 9.65889 204.793 10.2691C203.835 10.8786 203.166 11.8376 202.928 12.9322L192.931 59.068C192.71 60.0774 192.096 60.9575 191.213 61.5202C190.333 62.0835 189.26 62.2781 188.232 62.0636L188.007 62.0153C185.868 61.5685 184.499 59.5049 184.956 57.4058L194.948 11.2693C195.186 10.1739 194.968 9.03022 194.349 8.09183C193.725 7.15203 192.748 6.49351 191.634 6.25909C189.263 5.76681 186.937 7.24934 186.435 9.57293L176.458 55.632C176.238 56.6414 175.621 57.5244 174.74 58.0842C173.857 58.6453 172.783 58.84 171.758 58.6269L171.531 58.5786C169.391 58.1339 168.026 56.0681 168.48 53.9676L178.568 7.40775C178.778 6.44095 178.289 5.45852 177.385 5.02307C176.482 4.58762 175.388 4.80926 174.737 5.56295C166.332 15.302 161.048 34.9626 159.238 43.3158C154.324 66.0018 158.363 86.5007 174.737 93.5325Z" fill="#F6921E"/>
<path d="M480.411 205.192V209.736H479.131C477.808 210.035 476.379 210.696 474.843 211.72C473.307 212.701 471.856 214.003 470.491 215.624C469.125 217.203 467.995 219.059 467.099 221.192C466.245 223.325 465.819 225.672 465.819 228.232C465.819 231.304 466.267 233.757 467.163 235.592C468.101 237.384 469.253 238.664 470.619 239.432C471.984 240.2 473.349 240.584 474.715 240.584C475.781 240.584 476.677 240.477 477.403 240.264C478.128 240.051 478.96 239.667 479.899 239.112L482.139 243.016C481.029 243.869 479.813 244.467 478.491 244.808C477.168 245.149 475.824 245.32 474.459 245.32C471.771 245.32 469.403 244.616 467.355 243.208C465.307 241.8 463.685 239.837 462.491 237.32C461.339 234.76 460.763 231.773 460.763 228.36C460.763 225.075 461.275 222.152 462.299 219.592C463.365 216.989 464.731 214.728 466.395 212.808C468.101 210.888 469.936 209.309 471.899 208.072C473.861 206.792 475.76 205.832 477.595 205.192H480.411ZM518.984 205.192V209.736H489.928V228.808L489.032 227.528C490.738 225.608 492.68 223.816 494.856 222.152C497.032 220.488 499.4 218.973 501.96 217.608C504.52 216.2 507.25 214.963 510.152 213.896L514.312 217.992C513.501 219.485 512.84 220.936 512.328 222.344C511.858 223.752 511.496 225.224 511.24 226.76C511.026 228.296 510.92 230.003 510.92 231.88C510.92 233.971 511.09 235.976 511.432 237.896C511.773 239.816 512.349 241.971 513.16 244.36L508.36 245.448C507.592 242.973 506.994 240.563 506.568 238.216C506.141 235.827 505.928 233.352 505.928 230.792C505.928 229.043 506.056 227.4 506.312 225.864C506.568 224.328 506.909 222.963 507.336 221.768C507.805 220.531 508.274 219.528 508.744 218.76L509.512 219.08C507.08 220.061 504.712 221.256 502.408 222.664C500.104 224.072 497.842 225.693 495.624 227.528C493.405 229.363 491.122 231.453 488.776 233.8L485 231.24V209.736H479.112V205.192H518.984ZM541.098 205.192V209.736H539.818C538.496 210.035 537.066 210.696 535.53 211.72C533.994 212.701 532.544 214.003 531.178 215.624C529.813 217.203 528.682 219.059 527.786 221.192C526.933 223.325 526.506 225.672 526.506 228.232C526.506 231.304 526.954 233.757 527.85 235.592C528.789 237.384 529.941 238.664 531.306 239.432C532.672 240.2 534.037 240.584 535.402 240.584C536.469 240.584 537.365 240.477 538.09 240.264C538.816 240.051 539.648 239.667 540.586 239.112L542.826 243.016C541.717 243.869 540.501 244.467 539.178 244.808C537.856 245.149 536.533 245.32 535.21 245.32C532.522 245.32 530.133 244.616 528.042 243.208C525.994 241.8 524.373 239.837 523.178 237.32C522.026 234.76 521.45 231.773 521.45 228.36C521.45 224.861 522.112 221.704 523.434 218.888C524.757 216.029 526.528 213.619 528.746 211.656C531.008 209.693 533.504 208.264 536.234 207.368L532.138 209.48C531.37 209.565 530.538 209.629 529.642 209.672C528.746 209.715 527.744 209.736 526.634 209.736H517.674V205.192H541.098ZM584.407 205.192V209.736H577.687V245H572.759V212.232L573.079 210.952C572.951 210.227 572.866 209.48 572.823 208.712C572.781 207.944 572.759 207.091 572.759 206.152V200.968H576.151L577.687 205.192H584.407ZM563.543 204.744C565.207 204.744 566.743 205.064 568.151 205.704C569.559 206.344 570.818 207.24 571.927 208.392C573.037 209.544 573.933 210.888 574.615 212.424L574.359 219.144C573.037 216.072 571.479 213.683 569.687 211.976C567.895 210.269 565.89 209.416 563.671 209.416C562.007 209.416 560.663 209.885 559.639 210.824C558.615 211.72 558.103 213.064 558.103 214.856C558.103 216.563 558.786 217.971 560.151 219.08C561.559 220.147 563.799 220.744 566.871 220.872L566.423 225.8C563.607 225.629 561.282 225.053 559.447 224.072C557.655 223.091 556.333 221.811 555.479 220.232C554.626 218.611 554.199 216.755 554.199 214.664C554.199 212.403 554.647 210.547 555.543 209.096C556.439 207.603 557.591 206.515 558.999 205.832C560.45 205.107 561.965 204.744 563.543 204.744ZM545.367 204.744C547.159 204.744 548.845 205.107 550.423 205.832C552.045 206.557 553.367 207.709 554.391 209.288C555.415 210.867 555.927 212.936 555.927 215.496C555.927 217.245 555.501 218.909 554.647 220.488C553.794 222.067 552.471 223.347 550.679 224.328C548.93 225.309 546.669 225.8 543.895 225.8L543.511 220.872C545.687 220.829 547.394 220.531 548.631 219.976C549.869 219.379 550.743 218.632 551.255 217.736C551.767 216.84 552.023 215.944 552.023 215.048C552.023 213.299 551.469 211.933 550.359 210.952C549.25 209.928 547.565 209.416 545.303 209.416C544.535 209.416 543.767 209.48 542.999 209.608C542.274 209.693 541.399 209.864 540.375 210.12L539.863 205.32C540.93 205.107 541.869 204.957 542.679 204.872C543.533 204.787 544.429 204.744 545.367 204.744ZM622.536 205.192V209.736H615.816V245H610.888C609.608 242.44 607.837 240.093 605.576 237.96C603.357 235.784 600.797 233.949 597.896 232.456C594.994 230.963 591.901 229.96 588.616 229.448L586.12 223.304C590.216 220.829 594.44 218.589 598.792 216.584C603.186 214.579 607.709 212.872 612.36 211.464L610.888 214.152V209.736H583.112V205.192H622.536ZM610.888 214.664L612.232 216.456C608.989 217.523 605.576 218.845 601.992 220.424C598.408 221.96 595.101 223.667 592.072 225.544C594.376 226.056 596.829 226.931 599.432 228.168C602.034 229.405 604.445 230.963 606.664 232.84C608.882 234.717 610.589 236.893 611.784 239.368H611.208C611.122 238.387 611.037 237.405 610.952 236.424C610.909 235.443 610.888 234.269 610.888 232.904V214.664ZM595.592 245.384C594.525 245.384 593.608 245.043 592.84 244.36C592.114 243.677 591.752 242.781 591.752 241.672C591.752 240.563 592.114 239.645 592.84 238.92C593.608 238.195 594.525 237.832 595.592 237.832C596.658 237.832 597.554 238.195 598.28 238.92C599.048 239.645 599.432 240.563 599.432 241.672C599.432 242.781 599.048 243.677 598.28 244.36C597.554 245.043 596.658 245.384 595.592 245.384ZM677.286 205.192V209.736H670.566V245H665.638C664.358 242.44 662.587 240.093 660.326 237.96C658.107 235.784 655.547 233.949 652.646 232.456C649.744 230.963 646.651 229.96 643.366 229.448L640.87 223.304C644.966 220.829 649.19 218.589 653.542 216.584C657.936 214.579 662.459 212.872 667.11 211.464L665.638 214.152V209.736H637.862V205.192H677.286ZM665.638 214.664L666.982 216.456C663.739 217.523 660.326 218.845 656.742 220.424C653.158 221.96 649.851 223.667 646.822 225.544C649.126 226.056 651.579 226.931 654.182 228.168C656.784 229.405 659.195 230.963 661.414 232.84C663.632 234.717 665.339 236.893 666.534 239.368H665.958C665.872 238.387 665.787 237.405 665.702 236.424C665.659 235.443 665.638 234.269 665.638 232.904V214.664ZM694.291 205.192V209.736H687.571V245H682.643V214.984C682.131 213.533 681.363 212.296 680.339 211.272C679.357 210.248 678.077 209.736 676.499 209.736H675.987V205.192H676.947C677.971 205.192 679.037 205.533 680.147 206.216C681.256 206.856 682.152 207.859 682.835 209.224C682.792 209.011 682.749 208.52 682.707 207.752C682.664 206.984 682.643 206.323 682.643 205.768V200.968H686.099L687.507 205.192H694.291ZM719.291 240.968C716.773 240.968 714.363 240.52 712.059 239.624C709.755 238.728 707.579 237.299 705.531 235.336C703.525 233.331 701.669 230.685 699.963 227.4C698.299 224.072 696.805 220.019 695.483 215.24L700.347 213.96C701.797 219.208 703.419 223.475 705.211 226.76C707.003 230.003 709.072 232.371 711.419 233.864C713.765 235.357 716.453 236.104 719.483 236.104C722.64 236.104 725.029 235.421 726.651 234.056C728.272 232.691 729.083 230.621 729.083 227.848C729.083 226.525 728.912 225.395 728.571 224.456C728.229 223.517 727.888 222.728 727.547 222.088H731.387C730.192 223.325 728.933 224.435 727.611 225.416C726.331 226.397 724.944 227.165 723.451 227.72C722 228.275 720.4 228.552 718.651 228.552C716.987 228.552 715.515 228.232 714.235 227.592C712.955 226.952 711.952 226.035 711.227 224.84C710.501 223.603 710.139 222.131 710.139 220.424C710.139 218.547 710.8 216.648 712.123 214.728C713.445 212.765 715.685 211.059 718.843 209.608C717.989 209.651 717.008 209.693 715.899 209.736C714.832 209.736 713.765 209.736 712.699 209.736H692.987V205.192H752.955V209.736H732.923C731.899 209.736 730.981 209.715 730.171 209.672C729.36 209.629 728.592 209.587 727.867 209.544C724.283 211.165 721.573 212.637 719.739 213.96C717.904 215.283 716.667 216.499 716.027 217.608C715.387 218.675 715.067 219.699 715.067 220.68C715.067 221.875 715.408 222.728 716.091 223.24C716.773 223.752 717.541 224.008 718.395 224.008C720.016 224.008 721.467 223.645 722.747 222.92C724.027 222.152 725.477 221.064 727.099 219.656L732.603 221.64C732.987 222.493 733.307 223.56 733.563 224.84C733.819 226.077 733.947 227.379 733.947 228.744C733.947 230.877 733.456 232.883 732.475 234.76C731.536 236.595 729.979 238.088 727.803 239.24C725.669 240.392 722.832 240.968 719.291 240.968ZM744.891 231.88C744.891 233.971 745.061 235.976 745.403 237.896C745.744 239.816 746.32 241.971 747.131 244.36L742.331 245.448C741.563 242.973 740.965 240.563 740.539 238.216C740.112 235.827 739.899 233.352 739.899 230.792C739.899 228.531 740.091 226.504 740.475 224.712C740.901 222.92 741.392 221.405 741.947 220.168C738.704 220.125 735.931 219.72 733.627 218.952C731.365 218.141 729.467 217.011 727.931 215.56C726.395 214.067 725.093 212.296 724.027 210.248L728.891 209.224C729.573 210.461 730.427 211.571 731.451 212.552C732.517 213.491 733.883 214.237 735.547 214.792C737.211 215.347 739.259 215.624 741.691 215.624C742.288 215.624 742.864 215.603 743.419 215.56C743.973 215.517 744.571 215.475 745.211 215.432L747.707 219.912C746.683 221.832 745.957 223.709 745.531 225.544C745.104 227.379 744.891 229.491 744.891 231.88ZM769.978 205.192V209.736H763.258V245H758.33V214.984C757.818 213.533 757.05 212.296 756.026 211.272C755.045 210.248 753.765 209.736 752.186 209.736H751.674V205.192H752.634C753.658 205.192 754.725 205.533 755.834 206.216C756.944 206.856 757.84 207.859 758.522 209.224C758.48 209.011 758.437 208.52 758.394 207.752C758.352 206.984 758.33 206.323 758.33 205.768V200.968H761.786L763.194 205.192H769.978ZM808.098 205.192V209.736H801.378V245H796.45C795.17 242.44 793.4 240.093 791.138 237.96C788.92 235.784 786.36 233.949 783.458 232.456C780.557 230.963 777.464 229.96 774.178 229.448L771.682 223.304C775.778 220.829 780.002 218.589 784.354 216.584C788.749 214.579 793.272 212.872 797.922 211.464L796.45 214.152V209.736H768.674V205.192H808.098ZM796.45 214.664L797.794 216.456C794.552 217.523 791.138 218.845 787.554 220.424C783.97 221.96 780.664 223.667 777.634 225.544C779.938 226.056 782.392 226.931 784.994 228.168C787.597 229.405 790.008 230.963 792.226 232.84C794.445 234.717 796.152 236.893 797.346 239.368H796.77C796.685 238.387 796.6 237.405 796.514 236.424C796.472 235.443 796.45 234.269 796.45 232.904V214.664ZM781.154 245.384C780.088 245.384 779.17 245.043 778.402 244.36C777.677 243.677 777.314 242.781 777.314 241.672C777.314 240.563 777.677 239.645 778.402 238.92C779.17 238.195 780.088 237.832 781.154 237.832C782.221 237.832 783.117 238.195 783.842 238.92C784.61 239.645 784.994 240.563 784.994 241.672C784.994 242.781 784.61 243.677 783.842 244.36C783.117 245.043 782.221 245.384 781.154 245.384Z" fill="#7C7C7C"/>
</svg>
