<svg width="30" height="30" viewBox="0 0 30 30" fill="none" xmlns="http://www.w3.org/2000/svg">
<path d="M6 12C5.99918 10.13 6.58085 8.30626 7.66418 6.78207C8.74751 5.25788 10.2787 4.10898 12.045 3.49501C11.9766 3.06648 12.002 2.6282 12.1194 2.21043C12.2368 1.79266 12.4435 1.40533 12.7251 1.07518C13.0067 0.745026 13.3567 0.479903 13.7507 0.298103C14.1447 0.116303 14.5735 0.0221558 15.0075 0.0221558C15.4415 0.0221558 15.8703 0.116303 16.2643 0.298103C16.6583 0.479903 17.0082 0.745026 17.2899 1.07518C17.5715 1.40533 17.7782 1.79266 17.8956 2.21043C18.013 2.6282 18.0384 3.06648 17.97 3.49501C19.7335 4.1115 21.2614 5.26148 22.3419 6.78545C23.4224 8.30943 24.0019 10.1319 24 12V21L28.5 24V25.5H1.5V24L6 21V12ZM18 27C18 27.7957 17.6839 28.5587 17.1213 29.1213C16.5587 29.6839 15.7956 30 15 30C14.2044 30 13.4413 29.6839 12.8787 29.1213C12.3161 28.5587 12 27.7957 12 27H18Z" fill="#8E8E8E"/>
</svg>
