<svg width="23" height="23" viewBox="0 0 23 23" fill="none" xmlns="http://www.w3.org/2000/svg">
<g clip-path="url(#clip0_28_845)">
<path fill-rule="evenodd" clip-rule="evenodd" d="M0 18.0714C0 19.4317 1.10071 20.5357 2.461 20.5357H20.539C21.8993 20.5357 23 19.4317 23 18.0714V14.7298C23.0002 14.5494 22.9409 14.3738 22.8313 14.2304C22.7217 14.087 22.568 13.9836 22.3938 13.9363C21.8592 13.7908 21.3873 13.4734 21.0508 13.0331C20.7144 12.5928 20.5322 12.0541 20.5322 11.5C20.5322 10.9459 20.7144 10.4072 21.0508 9.9669C21.3873 9.52662 21.8592 9.20922 22.3938 9.06364C22.568 9.01635 22.7217 8.913 22.8313 8.76958C22.9409 8.62615 23.0002 8.45063 23 8.27014V4.92856C23 3.56828 21.8993 2.46428 20.539 2.46428H2.461C1.10071 2.46428 0 3.56828 0 4.92856V8.26357C0.000218427 8.44492 0.0604482 8.62111 0.171296 8.76464C0.282144 8.90818 0.437377 9.011 0.612786 9.05706C1.15308 9.19835 1.6313 9.51476 1.9726 9.95679C2.3139 10.3988 2.49904 10.9415 2.49904 11.5C2.49904 12.0585 2.3139 12.6012 1.9726 13.0432C1.6313 13.4852 1.15308 13.8016 0.612786 13.9429C0.437377 13.989 0.282144 14.0918 0.171296 14.2353C0.0604482 14.3789 0.000218427 14.5551 0 14.7364L0 18.0714ZM8.15186 16.3333L16.3661 8.11899C16.5495 7.92476 16.6499 7.66674 16.6461 7.39968C16.6423 7.13262 16.5346 6.87755 16.3459 6.68858C16.1571 6.49962 15.9022 6.39164 15.6351 6.38755C15.3681 6.38347 15.1099 6.4836 14.9155 6.66671L6.70121 14.881C6.6012 14.9752 6.5211 15.0885 6.46566 15.2142C6.41022 15.3399 6.38058 15.4754 6.37848 15.6128C6.37638 15.7502 6.40186 15.8866 6.45343 16.0139C6.505 16.1412 6.58159 16.2569 6.67869 16.3541C6.77578 16.4513 6.89139 16.5281 7.01867 16.5798C7.14595 16.6315 7.28231 16.6571 7.41968 16.6552C7.55705 16.6532 7.69264 16.6237 7.8184 16.5685C7.94417 16.5132 8.05756 16.4332 8.15186 16.3333ZM6.60593 8.21428C6.60593 7.77857 6.77902 7.3607 7.08711 7.0526C7.39521 6.74451 7.81307 6.57142 8.24879 6.57142C8.6845 6.57142 9.10237 6.74451 9.41046 7.0526C9.71856 7.3607 9.89164 7.77857 9.89164 8.21428C9.89164 8.64999 9.71856 9.06786 9.41046 9.37595C9.10237 9.68405 8.6845 9.85714 8.24879 9.85714C7.81307 9.85714 7.39521 9.68405 7.08711 9.37595C6.77902 9.06786 6.60593 8.64999 6.60593 8.21428ZM13.1774 14.7857C13.1774 14.35 13.3504 13.9321 13.6585 13.624C13.9666 13.3159 14.3845 13.1428 14.8202 13.1428C15.2559 13.1428 15.6738 13.3159 15.9819 13.624C16.29 13.9321 16.4631 14.35 16.4631 14.7857C16.4631 15.2214 16.29 15.6393 15.9819 15.9474C15.6738 16.2555 15.2559 16.4286 14.8202 16.4286C14.3845 16.4286 13.9666 16.2555 13.6585 15.9474C13.3504 15.6393 13.1774 15.2214 13.1774 14.7857Z" fill="#8E8E8E"/>
</g>
<defs>
<clipPath id="clip0_28_845">
<rect width="23" height="23" fill="white"/>
</clipPath>
</defs>
</svg>
