<svg width="20" height="20" viewBox="0 0 20 20" fill="none" xmlns="http://www.w3.org/2000/svg">
<path fill-rule="evenodd" clip-rule="evenodd" d="M2.08325 3.33333C2.08325 2.8913 2.25885 2.46737 2.57141 2.15481C2.88397 1.84225 3.30789 1.66666 3.74992 1.66666C4.22291 1.6661 4.69057 1.76646 5.12169 1.96103C5.5528 2.15561 5.93744 2.43992 6.24992 2.79499C6.5624 2.43992 6.94704 2.15561 7.37815 1.96103C7.80927 1.76646 8.27693 1.6661 8.74992 1.66666C9.19195 1.66666 9.61587 1.84225 9.92843 2.15481C10.241 2.46737 10.4166 2.8913 10.4166 3.33333C10.4166 3.94083 10.2541 4.50999 9.97075 4.99999H10.8333C11.0543 4.99999 11.2662 5.08779 11.4225 5.24407C11.5788 5.40035 11.6666 5.61231 11.6666 5.83333V6.66666H14.9999C15.5471 6.66666 16.0889 6.77443 16.5944 6.98383C17.1 7.19322 17.5593 7.50014 17.9462 7.88705C18.3331 8.27396 18.64 8.73329 18.8494 9.23881C19.0588 9.74434 19.1666 10.2862 19.1666 10.8333V14.1667C19.1667 14.7031 18.9943 15.2254 18.6748 15.6563C18.3553 16.0873 17.9057 16.4041 17.3924 16.56C17.2396 17.0642 16.9314 17.5072 16.5118 17.8258C16.0922 18.1444 15.5828 18.3223 15.0561 18.3341C14.5294 18.3459 14.0124 18.1911 13.579 17.8916C13.1455 17.5922 12.8177 17.1635 12.6424 16.6667H7.35825C7.18294 17.1635 6.85516 17.5922 6.42172 17.8916C5.98827 18.1911 5.4713 18.3459 4.94461 18.3341C4.41792 18.3223 3.90843 18.1444 3.48886 17.8258C3.06929 17.5072 2.76109 17.0642 2.60825 16.56C2.09478 16.4043 1.64502 16.0875 1.32539 15.6565C1.00576 15.2256 0.83322 14.7032 0.833252 14.1667V5.83333C0.833252 5.61231 0.921049 5.40035 1.07733 5.24407C1.23361 5.08779 1.44557 4.99999 1.66659 4.99999H2.52909C2.23613 4.49346 2.08232 3.91847 2.08325 3.33333ZM3.74992 3.33333C4.19195 3.33333 4.61587 3.50892 4.92843 3.82148C5.24099 4.13404 5.41659 4.55796 5.41659 4.99999C4.97456 4.99999 4.55063 4.8244 4.23807 4.51184C3.92551 4.19928 3.74992 3.77535 3.74992 3.33333ZM7.08325 4.99999C7.52528 4.99999 7.9492 4.8244 8.26176 4.51184C8.57432 4.19928 8.74992 3.77535 8.74992 3.33333C8.30789 3.33333 7.88397 3.50892 7.57141 3.82148C7.25885 4.13404 7.08325 4.55796 7.08325 4.99999ZM12.6424 15H11.6666V8.33333H14.9999C15.663 8.33333 16.2988 8.59672 16.7677 9.06556C17.2365 9.5344 17.4999 10.1703 17.4999 10.8333V14.1667C17.5 14.2761 17.4785 14.3845 17.4366 14.4856C17.3947 14.5867 17.3333 14.6785 17.2558 14.7558C17.0427 14.3095 16.7021 13.9364 16.277 13.6838C15.8519 13.4311 15.3613 13.3102 14.8675 13.3363C14.3736 13.3624 13.8986 13.5345 13.5026 13.8306C13.1065 14.1267 12.8072 14.5337 12.6424 15ZM4.41075 15.2442C4.48762 15.1646 4.57958 15.1011 4.68125 15.0574C4.78292 15.0137 4.89227 14.9907 5.00292 14.9898C5.11357 14.9888 5.2233 15.0099 5.32571 15.0518C5.42813 15.0937 5.52117 15.1556 5.59941 15.2338C5.67766 15.3121 5.73954 15.4051 5.78144 15.5075C5.82334 15.6099 5.84442 15.7197 5.84346 15.8303C5.8425 15.941 5.81951 16.0503 5.77584 16.152C5.73216 16.2537 5.66868 16.3456 5.58909 16.4225C5.43192 16.5743 5.22142 16.6583 5.00292 16.6564C4.78442 16.6545 4.57541 16.5668 4.4209 16.4123C4.2664 16.2578 4.17876 16.0488 4.17686 15.8303C4.17496 15.6118 4.25895 15.4013 4.41075 15.2442ZM14.1666 15.8333C14.1666 15.6123 14.2544 15.4003 14.4107 15.2441C14.5669 15.0878 14.7789 15 14.9999 15C15.2209 15 15.4329 15.0878 15.5892 15.2441C15.7455 15.4003 15.8333 15.6123 15.8333 15.8333C15.8333 16.0543 15.7455 16.2663 15.5892 16.4226C15.4329 16.5789 15.2209 16.6667 14.9999 16.6667C14.7789 16.6667 14.5669 16.5789 14.4107 16.4226C14.2544 16.2663 14.1666 16.0543 14.1666 15.8333Z" fill="#1400FC"/>
</svg>
