<svg width="20" height="20" viewBox="0 0 20 20" fill="none" xmlns="http://www.w3.org/2000/svg">
<path d="M14.1668 15C13.2418 15 12.5002 15.7417 12.5002 16.6667C12.5002 17.1087 12.6758 17.5326 12.9883 17.8452C13.3009 18.1577 13.7248 18.3333 14.1668 18.3333C14.6089 18.3333 15.0328 18.1577 15.3453 17.8452C15.6579 17.5326 15.8335 17.1087 15.8335 16.6667C15.8335 16.2246 15.6579 15.8007 15.3453 15.4881C15.0328 15.1756 14.6089 15 14.1668 15ZM0.833496 1.66666V3.33332H2.50016L5.50016 9.65832L4.36683 11.7C4.24183 11.9333 4.16683 12.2083 4.16683 12.5C4.16683 12.942 4.34242 13.3659 4.65498 13.6785C4.96755 13.9911 5.39147 14.1667 5.8335 14.1667H15.8335V12.5H6.1835C6.12824 12.5 6.07525 12.478 6.03618 12.439C5.99711 12.3999 5.97516 12.3469 5.97516 12.2917C5.97516 12.25 5.9835 12.2167 6.00016 12.1917L6.75016 10.8333H12.9585C13.5835 10.8333 14.1335 10.4833 14.4168 9.97499L17.4002 4.58332C17.4585 4.44999 17.5002 4.30832 17.5002 4.16666C17.5002 3.94564 17.4124 3.73368 17.2561 3.5774C17.0998 3.42112 16.8878 3.33332 16.6668 3.33332H4.34183L3.5585 1.66666M5.8335 15C4.9085 15 4.16683 15.7417 4.16683 16.6667C4.16683 17.1087 4.34242 17.5326 4.65498 17.8452C4.96755 18.1577 5.39147 18.3333 5.8335 18.3333C6.27552 18.3333 6.69945 18.1577 7.01201 17.8452C7.32457 17.5326 7.50016 17.1087 7.50016 16.6667C7.50016 16.2246 7.32457 15.8007 7.01201 15.4881C6.69945 15.1756 6.27552 15 5.8335 15Z" fill="#019934"/>
</svg>
