<svg width="24" height="24" viewBox="0 0 24 24" fill="none" xmlns="http://www.w3.org/2000/svg">
<path d="M4 10C4 8.114 4 7.172 4.586 6.586C5.172 6 6.114 6 8 6H16C17.886 6 18.828 6 19.414 6.586C20 7.172 20 8.114 20 10V12C20 12.943 20 13.414 19.707 13.707C19.414 14 18.943 14 18 14H17.3C17.159 14 17.088 14 17.044 13.956C17 13.912 17 13.841 17 13.7V13C17 12.057 17 11.586 16.707 11.293C16.414 11 15.943 11 15 11H9C8.057 11 7.586 11 7.293 11.293C7 11.586 7 12.057 7 13V13.7C7 13.841 7 13.912 6.956 13.956C6.912 14 6.841 14 6.7 14H5C4.529 14 4.293 14 4.146 13.854C4 13.707 4 13.47 4 13V10Z" fill="black"/>
<path d="M7 20.262V13C7 12.057 7 11.586 7.293 11.293C7.586 11 8.057 11 9 11H15C15.943 11 16.414 11 16.707 11.293C17 11.586 17 12.057 17 13V20.262C17 20.596 17 20.763 16.89 20.838C16.78 20.912 16.625 20.85 16.314 20.726L14.686 20.074C14.6279 20.0444 14.5649 20.0257 14.5 20.019C14.4351 20.0257 14.3721 20.0444 14.314 20.074L12.186 20.926C12.1279 20.9556 12.0649 20.9743 12 20.981C11.9351 20.9743 11.8721 20.9556 11.814 20.926L9.686 20.074C9.62791 20.0444 9.56486 20.0257 9.5 20.019C9.43514 20.0257 9.37209 20.0444 9.314 20.074L7.686 20.726C7.375 20.85 7.22 20.912 7.11 20.838C7 20.763 7 20.596 7 20.262Z" fill="black" fill-opacity="0.25"/>
<path d="M9.5 14.5H13.5M9.5 17.5H14.5" stroke="black" stroke-linecap="round"/>
<path d="M7 4.74C7 4.047 7 3.701 7.164 3.452C7.23923 3.33726 7.33726 3.23923 7.452 3.164C7.702 3 8.047 3 8.739 3H15.261C15.953 3 16.299 3 16.549 3.164C16.6634 3.23933 16.7611 3.33736 16.836 3.452C17 3.702 17 4.047 17 4.739C17 4.843 17 4.895 16.975 4.932C16.9638 4.94914 16.9491 4.96378 16.932 4.975C16.895 5 16.842 5 16.74 5H7.261C7.157 5 7.105 5 7.068 4.975C7.05088 4.96375 7.03625 4.94912 7.025 4.932C7 4.895 7 4.842 7 4.74Z" fill="black"/>
</svg>
