<svg width="24" height="24" viewBox="0 0 24 24" fill="none" xmlns="http://www.w3.org/2000/svg">
<path d="M3.77802 3.655C3.59702 4.015 3.50802 4.461 3.33002 5.351L2.73202 8.341C2.64727 8.74867 2.64662 9.16936 2.73009 9.5773C2.81357 9.98523 2.97943 10.3718 3.21751 10.7135C3.45559 11.0551 3.76089 11.3445 4.11471 11.564C4.46853 11.7835 4.86344 11.9285 5.27525 11.9901C5.68706 12.0518 6.1071 12.0287 6.50968 11.9223C6.91225 11.8159 7.28888 11.6285 7.61651 11.3715C7.94414 11.1145 8.21588 10.7934 8.41508 10.4277C8.61428 10.0621 8.73676 9.65963 8.77502 9.245L8.84502 8.555C8.80713 8.99384 8.86119 9.43576 9.00375 9.85252C9.14631 10.2693 9.37425 10.6517 9.67298 10.9754C9.97172 11.2991 10.3347 11.5569 10.7387 11.7324C11.1427 11.9078 11.5789 11.9971 12.0194 11.9944C12.4598 11.9918 12.8949 11.8973 13.2968 11.717C13.6986 11.5366 14.0585 11.2745 14.3533 10.9472C14.6481 10.6199 14.8714 10.2348 15.0089 9.81634C15.1465 9.39789 15.1952 8.95535 15.152 8.517L15.225 9.245C15.2633 9.65963 15.3858 10.0621 15.585 10.4277C15.7842 10.7934 16.0559 11.1145 16.3835 11.3715C16.7112 11.6285 17.0878 11.8159 17.4904 11.9223C17.8929 12.0287 18.313 12.0518 18.7248 11.9901C19.1366 11.9285 19.5315 11.7835 19.8853 11.564C20.2392 11.3445 20.5445 11.0551 20.7825 10.7135C21.0206 10.3718 21.1865 9.98523 21.27 9.5773C21.3534 9.16936 21.3528 8.74867 21.268 8.341L20.67 5.351C20.492 4.461 20.403 4.016 20.222 3.655C20.0334 3.27904 19.7679 2.94694 19.4426 2.68025C19.1174 2.41356 18.7397 2.21826 18.334 2.107C17.944 2 17.49 2 16.582 2H7.41802C6.51002 2 6.05602 2 5.66602 2.107C5.26039 2.21826 4.88269 2.41356 4.55743 2.68025C4.23217 2.94694 3.96662 3.27904 3.77802 3.655ZM18.269 13.5C19.0504 13.502 19.8189 13.3018 20.5 12.919V14C20.5 17.771 20.5 19.657 19.328 20.828C18.385 21.772 16.98 21.955 14.5 21.991V18.5C14.5 17.565 14.5 17.098 14.299 16.75C14.1674 16.522 13.978 16.3326 13.75 16.201C13.402 16 12.935 16 12 16C11.065 16 10.598 16 10.25 16.201C10.022 16.3326 9.83267 16.522 9.70102 16.75C9.50002 17.098 9.50002 17.565 9.50002 18.5V21.991C7.02002 21.955 5.61502 21.771 4.67202 20.828C3.50002 19.657 3.50002 17.771 3.50002 14V12.919C4.18144 13.302 4.95036 13.5021 5.73202 13.5C6.88768 13.5008 8.00033 13.0618 8.84402 12.272C9.7039 13.0641 10.8309 13.5026 12 13.5C13.1691 13.5025 14.2961 13.064 15.156 12.272C15.9997 13.0618 17.1134 13.5008 18.269 13.5Z" fill="white"/>
</svg>
