<svg width="20" height="20" viewBox="0 0 20 20" fill="none" xmlns="http://www.w3.org/2000/svg">
<path d="M16.6666 9.16668C16.4628 7.70019 15.7825 6.34139 14.7304 5.29959C13.6784 4.25779 12.313 3.59077 10.8446 3.4013C9.37624 3.21183 7.88627 3.51041 6.60425 4.25105C5.32224 4.99168 4.31929 6.13329 3.74992 7.50001M3.33325 4.16668V7.50001H6.66659M3.33325 10.8333C3.53705 12.2998 4.21736 13.6586 5.26939 14.7004C6.32141 15.7422 7.68679 16.4092 9.15519 16.5987C10.6236 16.7882 12.1136 16.4896 13.3956 15.749C14.6776 15.0083 15.6805 13.8667 16.2499 12.5M16.6666 15.8333V12.5H13.3333" stroke="#FF0000" stroke-width="2" stroke-linecap="round" stroke-linejoin="round"/>
</svg>
